<?xml version="1.0" encoding="utf-8"?>
<!-- Generator: Adobe Illustrator 19.0.0, SVG Export Plug-In . SVG Version: 6.00 Build 0)  -->
<svg version="1.1" xmlns="http://www.w3.org/2000/svg" xmlns:xlink="http://www.w3.org/1999/xlink" x="0px" y="0px"
	 viewBox="0 0 500 500" style="enable-background:new 0 0 500 500;" xml:space="preserve">
<style type="text/css">
	.st0{fill:#3292AB;}
	.st1{fill:#FFFFFF;}
</style>
<path d="M74.7,173.4"/>
<g>
	<path class="st0" d="M80.4,164.7l8.2,6l7.8,5.7l123,89.3l119.9-45.9l7.8-3l7,4.5l138.5,89c4.8-19.3,7.4-39.6,7.4-60.4
		C500,111.9,388.1,0,250,0S0,111.9,0,250c0,12.8,1,25.4,2.8,37.7l66.7-106.1L80.4,164.7z"/>
	<path class="st0" d="M224.3,285.3l-7.8,3l-6.8-4.9l-123.9-90l-77,122.5C37.7,422,134.7,500,250,500c109.9,0,203.3-71,236.8-169.6
		l-141.9-91.2L224.3,285.3z"/>
	<path class="st1" d="M354.2,221.4l-7-4.5l-7.8,3l-119.9,45.9l-123-89.3l-7.8-5.7l-8.2-6l-10.8,16.9L2.8,287.7
		c1.4,9.6,3.4,18.9,5.9,28.1l77-122.5l123.9,90l6.8,4.9l7.8-3l120.5-46.1l141.9,91.2c2.2-6.6,4.2-13.2,5.9-20L354.2,221.4z"/>
</g>
</svg>
